<?xml version="1.0" standalone="no"?>
<!DOCTYPE svg PUBLIC "-//W3C//DTD SVG 20010904//EN"
 "http://www.w3.org/TR/2001/REC-SVG-20010904/DTD/svg10.dtd">
<svg version="1.0" xmlns="http://www.w3.org/2000/svg"
 width="256.000000pt" height="256.000000pt" viewBox="0 0 256.000000 256.000000"
 preserveAspectRatio="xMidYMid meet">
<metadata>
Created by potrace 1.14, written by Peter Selinger 2001-2017
</metadata>
<g transform="translate(0.000000,256.000000) scale(0.100000,-0.100000)"
fill="#000000" stroke="none">
<path d="M809 2380 c-32 -17 -61 -45 -126 -123 -13 -15 -20 -27 -17 -27 3 0
-5 -19 -19 -42 -13 -24 -32 -70 -42 -103 -10 -33 -20 -67 -23 -75 -3 -8 -6
-26 -7 -40 -1 -14 -3 -25 -5 -25 -1 0 -3 -16 -4 -35 -1 -19 -4 -39 -7 -45 -3
-5 -5 -27 -5 -48 l1 -39 -70 9 c-171 20 -317 2 -389 -48 -29 -20 -81 -83 -81
-98 0 -3 -3 -11 -7 -17 -10 -16 -2 -138 12 -174 1 -3 2 -8 1 -12 0 -5 4 -8 10
-8 5 0 7 -4 4 -10 -3 -5 -1 -10 4 -10 6 0 11 -5 11 -10 0 -12 9 -24 60 -78 79
-85 183 -145 308 -178 80 -20 90 -28 93 -74 2 -19 5 -39 8 -45 3 -5 7 -28 8
-50 2 -21 7 -42 11 -45 4 -3 8 -18 10 -35 3 -35 7 -55 14 -75 3 -8 11 -35 17
-60 7 -25 16 -54 20 -65 5 -11 19 -47 32 -80 12 -33 30 -71 39 -85 8 -14 22
-37 30 -52 7 -16 17 -28 22 -28 4 0 8 -7 8 -15 0 -8 9 -20 20 -27 11 -7 20
-17 20 -22 0 -17 125 -120 185 -153 49 -26 156 -61 210 -68 177 -24 373 17
495 102 76 53 190 175 190 202 0 6 5 11 10 11 6 0 10 6 10 14 0 7 8 24 18 37
17 22 80 172 87 209 2 8 8 29 15 45 6 17 11 30 10 30 -1 0 3 19 9 42 6 23 11
45 10 50 -1 4 0 10 1 13 5 13 21 99 26 145 7 48 16 61 52 68 180 34 346 145
425 285 25 43 29 66 30 142 0 71 -15 112 -61 156 -30 29 -91 59 -137 69 -59
12 -183 13 -259 3 -42 -5 -80 -8 -83 -5 -3 3 -7 22 -9 41 -2 20 -6 53 -9 74
-3 20 -7 51 -8 67 -2 17 -5 35 -8 40 -3 6 -12 36 -19 68 -7 31 -17 57 -22 57
-4 0 -7 4 -5 8 5 17 -60 126 -105 176 -26 30 -63 61 -82 70 -70 33 -148 14
-196 -47 -23 -28 -35 -103 -19 -113 5 -3 7 -9 4 -14 -3 -5 -1 -19 5 -30 6 -12
13 -30 16 -41 2 -10 6 -29 9 -41 11 -43 6 -127 -9 -155 -27 -53 -83 -85 -173
-99 -90 -14 -232 -3 -293 22 -40 17 -96 75 -98 101 -7 85 2 146 31 228 18 52
16 94 -10 137 -38 64 -131 86 -204 48z m116 -130 c-9 -41 -10 -44 -19 -58 -4
-7 -6 -16 -3 -19 3 -3 1 -17 -4 -32 -10 -25 -20 -83 -19 -108 2 -73 18 -132
45 -167 14 -18 25 -35 25 -38 0 -3 -21 -4 -47 -2 -27 1 -92 2 -145 3 -95 1
-97 1 -92 24 2 12 7 45 10 72 4 28 10 57 15 66 4 9 5 19 2 23 -3 3 0 6 8 6 11
0 11 2 -1 10 -8 5 -10 10 -4 10 6 0 11 6 11 14 0 55 124 230 168 238 33 7 57
-13 50 -42z m812 6 c54 -60 110 -155 105 -178 -1 -5 2 -8 7 -8 4 0 8 -10 7
-22 -1 -13 2 -26 6 -29 4 -3 9 -18 10 -35 1 -16 4 -33 7 -39 3 -5 6 -19 7 -30
0 -11 4 -40 8 -65 4 -25 9 -59 10 -76 4 -41 41 -92 73 -100 14 -4 56 -2 92 3
97 15 236 14 283 -3 37 -13 100 -54 82 -54 -4 0 -3 -5 4 -12 19 -19 14 -87 -9
-135 -54 -112 -204 -208 -382 -243 -59 -12 -82 -31 -92 -79 -3 -11 -7 -30 -9
-40 -3 -11 -8 -41 -12 -68 -6 -47 -9 -60 -19 -106 -3 -12 -7 -31 -9 -42 -2
-11 -10 -40 -17 -65 -7 -25 -13 -47 -14 -50 0 -3 -7 -22 -14 -42 l-13 -38 -46
45 c-72 70 -204 126 -332 141 -30 3 -58 8 -62 10 -9 6 -237 5 -268 0 -14 -3
-46 -7 -72 -11 -113 -14 -251 -71 -317 -130 -21 -19 -41 -35 -44 -35 -4 0 -17
35 -21 60 -1 3 -5 11 -10 18 -4 7 -5 16 -2 19 3 3 -2 22 -10 41 -8 20 -12 42
-10 49 3 7 2 13 -3 13 -4 0 -8 6 -8 14 0 11 18 14 81 13 86 -2 143 5 191 23
47 18 141 67 166 87 61 48 123 113 151 158 18 28 37 53 43 57 5 4 6 8 1 8 -5
0 -4 6 1 13 33 41 49 204 27 270 -7 20 -11 37 -8 37 3 0 -10 29 -29 65 l-35
65 57 0 c174 2 283 47 351 144 17 25 28 46 25 46 -3 0 -3 6 2 13 4 6 8 30 10
52 1 22 2 42 3 45 1 3 1 10 0 15 -1 6 -4 26 -6 45 -4 32 -17 83 -31 120 -15
40 -11 71 10 79 31 12 52 3 84 -33z m-222 -1465 c118 -29 202 -72 244 -127 18
-24 31 -50 28 -58 -3 -8 -2 -16 4 -18 5 -2 -9 -30 -30 -63 -112 -172 -267
-257 -470 -258 -216 -2 -378 82 -488 252 -42 65 -57 101 -42 101 6 0 8 4 5 9
-9 13 64 86 109 108 59 31 167 62 238 69 34 3 63 8 65 9 13 11 264 -7 337 -24z"/>
<path d="M1543 1398 c-40 -19 -53 -83 -24 -120 38 -48 108 -43 135 10 39 76
-33 148 -111 110z"/>
<path d="M1001 586 c-13 -14 -20 -29 -16 -35 3 -6 2 -11 -3 -11 -5 0 -7 -15
-5 -32 3 -18 5 -39 6 -46 1 -22 44 -45 72 -38 19 5 28 17 38 54 8 26 10 49 6
50 -5 2 -9 14 -9 27 0 23 -32 55 -55 55 -7 0 -22 -11 -34 -24z"/>
<path d="M1409 597 c-56 -42 -33 -177 30 -177 58 0 79 97 35 168 -16 24 -40
28 -65 9z"/>
</g>
</svg>
